<svg width="694" height="156" viewBox="0 0 694 156" fill="none" xmlns="http://www.w3.org/2000/svg">
<path d="M174.108 72.3834C174.108 76.8758 173.633 80.7634 172.683 84.0462H132.511V86.7675C132.511 90.6551 133.504 93.4628 135.491 95.1907C137.478 96.8321 140.718 97.6528 145.21 97.6528C150.221 97.6528 153.59 97.0481 155.318 95.8386C157.132 94.6291 158.039 92.7717 158.039 90.2664H174.108C174.108 97.264 171.948 102.75 167.629 106.724C163.396 110.611 155.923 112.555 145.21 112.555C135.103 112.555 127.63 110.309 122.792 105.817C117.954 101.324 115.535 94.1108 115.535 84.1758V73.8089C115.535 54.3709 125.6 44.6519 145.729 44.6519C164.648 44.6519 174.108 53.8958 174.108 72.3834ZM132.511 68.8846V70.3101H158.039V68.8846C158.039 62.4917 153.763 59.2952 145.21 59.2952C136.744 59.2952 132.511 62.4917 132.511 68.8846ZM192.355 46.207L202.463 92.4693C202.982 94.7155 203.586 96.1842 204.277 96.8753C205.055 97.5664 206.264 97.912 207.906 97.912C209.547 97.912 210.714 97.6096 211.405 97.0049C212.182 96.3137 212.83 94.8019 213.348 92.4693L223.456 46.207H240.821L229.806 94.4131C229.028 97.696 228.251 100.288 227.473 102.188C226.782 104.002 225.659 105.817 224.104 107.631C222.635 109.445 220.562 110.698 217.884 111.389C215.292 112.166 211.966 112.555 207.906 112.555C203.845 112.555 200.476 112.166 197.798 111.389C195.206 110.698 193.133 109.488 191.578 107.76C190.109 105.946 188.986 104.132 188.209 102.318C187.518 100.417 186.783 97.7824 186.006 94.4131L174.991 46.207H192.355Z" fill="#0063F8"/>
<path d="M305.38 112.668V21.9575H322.356V53.7061C326.848 48.7819 333.457 46.3197 342.183 46.3197C348.316 46.3197 353.5 48.0475 357.733 51.5032C362.052 54.9588 364.212 60.6606 364.212 68.6086V112.668H347.236V71.5891C347.236 68.1334 346.329 65.7145 344.515 64.3322C342.701 62.95 339.98 62.2588 336.351 62.2588C332.032 62.2588 328.619 63.4251 326.114 65.7577C323.608 68.0038 322.356 72.0642 322.356 77.9388V112.668H305.38ZM425.445 68.6086V93.3596C425.445 100.357 423.199 105.584 418.706 109.04C414.214 112.495 407.087 114.223 397.325 114.223C387.562 114.223 380.435 112.538 375.943 109.169C371.45 105.713 369.204 100.573 369.204 93.7483C369.204 80.2714 377.973 73.5329 395.51 73.5329H408.599V68.6086C408.599 63.3387 405.057 60.7038 397.973 60.7038C394.776 60.7038 392.271 61.2654 390.456 62.3884C388.642 63.5115 387.735 65.6281 387.735 68.7382H372.185C372.185 53.7925 380.781 46.3197 397.973 46.3197C416.287 46.3197 425.445 53.7493 425.445 68.6086ZM408.599 92.4525V86.2323H395.251C389.117 86.2323 386.051 88.6081 386.051 93.3596C386.051 95.3466 386.612 96.8584 387.735 97.8951C388.858 98.9318 390.111 99.5797 391.493 99.8389C392.875 100.012 394.733 100.098 397.065 100.098C399.484 100.098 401.385 99.9685 402.767 99.7093C404.236 99.4502 405.575 98.759 406.784 97.6359C407.994 96.4265 408.599 94.6987 408.599 92.4525ZM447.432 72.4962V112.668H430.456V72.4962C430.456 63.9435 432.918 57.4642 437.843 53.0582C442.853 48.5659 450.24 46.3197 460.002 46.3197C470.11 46.3197 477.496 48.4795 482.161 52.799C486.913 57.1186 489.288 63.6843 489.288 72.4962V112.668H472.313V72.4962C472.313 68.8678 471.492 66.276 469.85 64.721C468.295 63.0796 465.013 62.2588 460.002 62.2588C454.991 62.2588 451.622 63.0796 449.894 64.721C448.253 66.276 447.432 68.8678 447.432 72.4962ZM556.124 21.9575V85.8436C556.124 95.5194 553.273 102.69 547.571 107.355C541.956 111.934 534.526 114.223 525.282 114.223C504.635 114.223 494.311 104.763 494.311 85.8436V75.4767C494.311 66.1464 496.6 58.976 501.179 53.9653C505.844 48.8682 512.626 46.3197 521.524 46.3197C529.731 46.3197 535.649 48.7819 539.277 53.7061V21.9575H556.124ZM511.287 75.0879V85.4548C511.287 90.0335 512.194 93.3164 514.008 95.3034C515.822 97.2904 519.537 98.2839 525.152 98.2839C530.682 98.2839 534.396 97.2904 536.297 95.3034C538.284 93.23 539.277 89.9471 539.277 85.4548V75.0879C539.277 70.5956 538.284 67.3559 536.297 65.3689C534.396 63.2955 530.682 62.2588 525.152 62.2588C519.623 62.2588 515.909 63.2955 514.008 65.3689C512.194 67.3559 511.287 70.5956 511.287 75.0879ZM650.079 74.0512C650.079 78.5435 649.604 82.4311 648.653 85.714H608.482V88.4353C608.482 92.3229 609.475 95.1306 611.462 96.8584C613.449 98.4999 616.689 99.3206 621.181 99.3206C626.192 99.3206 629.561 98.7158 631.289 97.5064C633.103 96.2969 634.01 94.4395 634.01 91.9341H650.079C650.079 98.9318 647.919 104.418 643.6 108.392C639.366 112.279 631.894 114.223 621.181 114.223C611.073 114.223 603.601 111.977 598.763 107.485C593.925 102.992 591.506 95.7785 591.506 85.8436V75.4767C591.506 56.0387 601.57 46.3197 621.699 46.3197C640.619 46.3197 650.079 55.5635 650.079 74.0512ZM608.482 70.5524V71.9778H634.01V70.5524C634.01 64.1594 629.734 60.963 621.181 60.963C612.715 60.963 608.482 64.1594 608.482 70.5524ZM672.138 71.2003V112.668H655.162V69.9044C655.162 62.2157 657.451 56.3843 662.03 52.4103C666.609 48.3499 673.304 46.3197 682.116 46.3197C684.881 46.3197 687.559 46.6653 690.15 47.3564V63.2955C687.731 62.6044 685.053 62.2588 682.116 62.2588C678.142 62.2588 675.464 62.95 674.082 64.3322C672.786 65.7145 672.138 68.0038 672.138 71.2003Z" fill="#0063F8"/>
<path d="M574.314 21.9727H590.752L577.687 112.715H561.25L574.314 21.9727Z" fill="#0063F8"/>
<path fill-rule="evenodd" clip-rule="evenodd" d="M250.42 15.0312H243.594V3.27344H250.42C262.403 3.27344 272.117 12.9875 272.117 24.9704V58.8226L287.14 74.8169L272.117 90.8111V124.653C272.117 136.636 262.403 146.35 250.42 146.35H243.594V134.592H250.42C255.91 134.592 260.36 130.142 260.36 124.653V84.1724L269.152 74.8114L260.36 65.4505V24.9704C260.36 19.4812 255.91 15.0312 250.42 15.0312Z" fill="#52EDB6"/>
<path fill-rule="evenodd" clip-rule="evenodd" d="M250.42 15.0312H243.594V3.27344H250.42C262.403 3.27344 272.117 12.9875 272.117 24.9704V58.8226L287.14 74.8169L272.117 90.8111V124.653C272.117 136.636 262.403 146.35 250.42 146.35H243.594V134.592H250.42C255.91 134.592 260.36 130.142 260.36 124.653V84.1724L269.152 74.8114L260.36 65.4505V24.9704C260.36 19.4812 255.91 15.0312 250.42 15.0312Z" fill="url(#paint0_linear_35_336)"/>
<path fill-rule="evenodd" clip-rule="evenodd" d="M36.722 15.0312H42.2422V3.27344H36.722C24.7391 3.27344 15.0251 12.9875 15.0251 24.9704V58.8209L0.00125122 74.8169L15.0251 90.8128V124.653C15.0251 136.636 24.7391 146.35 36.722 146.35H42.2422V134.592H36.722C31.2328 134.592 26.7829 130.142 26.7829 124.653V84.1754L17.988 74.8114L26.7829 65.4475V24.9704C26.7829 19.4812 31.2328 15.0312 36.722 15.0312Z" fill="#52EDB6"/>
<path fill-rule="evenodd" clip-rule="evenodd" d="M36.722 15.0312H42.2422V3.27344H36.722C24.7391 3.27344 15.0251 12.9875 15.0251 24.9704V58.8209L0.00125122 74.8169L15.0251 90.8128V124.653C15.0251 136.636 24.7391 146.35 36.722 146.35H42.2422V134.592H36.722C31.2328 134.592 26.7829 130.142 26.7829 124.653V84.1754L17.988 74.8114L26.7829 65.4475V24.9704C26.7829 19.4812 31.2328 15.0312 36.722 15.0312Z" fill="url(#paint1_linear_35_336)"/>
<path fill-rule="evenodd" clip-rule="evenodd" d="M111.977 14.8247C111.977 10.4968 108.468 6.98828 104.14 6.98828C99.8122 6.98828 96.3037 10.4968 96.3037 14.8247V49.0183C91.4224 46.6712 85.2326 45.3597 77.5069 45.7175C66.2762 46.2377 59.3232 51.4945 55.4063 57.1103C53.5444 59.7797 52.4594 62.3863 51.8333 64.3267C51.5173 65.306 51.309 66.1441 51.1744 66.7758C51.1068 67.0927 51.0572 67.3605 51.0216 67.5714C51.0037 67.677 50.9893 67.7687 50.9779 67.8455C50.9722 67.8839 50.9672 67.9185 50.9629 67.9494L50.9569 67.9929L50.9543 68.0125L50.9531 68.0217C50.9525 68.0262 50.9519 68.0306 58.7228 69.0424L50.9519 68.0306C50.3932 72.3223 53.4193 76.2544 57.711 76.8132C61.9645 77.367 65.8648 74.3994 66.4779 70.1684C66.4817 70.1475 66.4897 70.1049 66.503 70.0426C66.5403 69.8674 66.6161 69.5509 66.7488 69.1397C67.02 68.2992 67.4905 67.1813 68.2612 66.0763C69.6095 64.1432 72.2297 61.6516 78.232 61.3736C88.8291 60.8828 92.6124 64.7253 94.2505 67.2921C95.2484 68.8558 95.7837 70.5111 96.0584 71.828C96.1926 72.4715 96.255 72.9881 96.2832 73.3056C96.2964 73.4545 96.3018 73.5551 96.3037 73.5994V84.3703C96.3037 89.7863 94.5412 93.4183 92.0282 95.0641C89.0195 97.0345 85.6273 98.4188 82.1554 98.4188C75.0192 98.4188 71.0049 95.9919 68.8041 94.0111C67.6388 92.9623 66.8717 91.9338 66.4195 91.2217C66.1951 90.8682 66.055 90.6033 65.9881 90.4693C65.9705 90.434 65.9582 90.4082 65.951 90.3929C64.3077 86.4596 59.8083 84.5536 55.8301 86.1328C51.8075 87.7296 49.841 92.285 51.4378 96.3076L58.7213 93.4164C51.4378 96.3076 51.4395 96.3121 51.4413 96.3166L51.445 96.3258L51.4528 96.3453L51.4701 96.3878C51.4823 96.4179 51.4961 96.4512 51.5114 96.4877C51.5421 96.5606 51.5789 96.6464 51.6223 96.744C51.7091 96.9391 51.8222 97.1824 51.9641 97.4669C52.2476 98.0349 52.649 98.7731 53.1888 99.6232C54.2653 101.318 55.9184 103.5 58.3194 105.661C63.2512 110.099 70.954 114.092 82.1554 114.092C89.7403 114.092 96.1184 111.12 100.615 108.175C109.378 102.437 111.977 92.4328 111.977 84.3703V73.5198V14.8247ZM87.2696 42.8995L92.2401 44.4676L91.3045 14.4285C91.2663 13.2004 90.4721 12.1241 89.3099 11.7252C81.9146 9.1874 75.0936 16.7686 78.3959 23.8556L87.2696 42.8995ZM75.2318 42.8995H82.8504L74.9798 26.9435C74.3653 25.6977 72.6852 25.4695 71.7606 26.5063L70.5922 27.8166C67.826 30.9185 67.9626 35.6404 70.9035 38.5772L75.2318 42.8995Z" fill="#0063F8"/>
<defs>
<linearGradient id="paint0_linear_35_336" x1="248.464" y1="31.7524" x2="261.476" y2="145.102" gradientUnits="userSpaceOnUse">
<stop stop-color="#0063F8"/>
<stop offset="1" stop-color="#52EDB6"/>
</linearGradient>
<linearGradient id="paint1_linear_35_336" x1="37.5176" y1="31.7524" x2="24.1151" y2="145.009" gradientUnits="userSpaceOnUse">
<stop stop-color="#0063F8"/>
<stop offset="1" stop-color="#52EDB6"/>
</linearGradient>
</defs>
</svg>
